<?xml version="1.0" encoding="utf-8"?>
<!-- Generator: Adobe Illustrator 19.1.0, SVG Export Plug-In . SVG Version: 6.00 Build 0)  -->
<!DOCTYPE svg PUBLIC "-//W3C//DTD SVG 1.1//EN" "http://www.w3.org/Graphics/SVG/1.1/DTD/svg11.dtd">
<svg version="1.1" xmlns="http://www.w3.org/2000/svg" xmlns:xlink="http://www.w3.org/1999/xlink" x="0px" y="0px"
	 viewBox="0 0 307.8 66.4" enable-background="new 0 0 307.8 66.4" xml:space="preserve">
<g id="Layer_5" display="none">
	<rect x="-21.5" y="-144.8" display="inline" fill="#ED594F" width="721.2" height="360"/>
</g>
<g id="Layer_2" display="none">
	
		<radialGradient id="SVGID_1_" cx="339.6583" cy="35.2198" r="398.8237" gradientTransform="matrix(1 0 0 0.5998 0 14.0952)" gradientUnits="userSpaceOnUse">
		<stop  offset="0" style="stop-color:#F5A84D;stop-opacity:0.5"/>
		<stop  offset="0.3075" style="stop-color:#D0AA64;stop-opacity:0.6537"/>
		<stop  offset="1" style="stop-color:#5EA890"/>
	</radialGradient>
	<rect x="-20.3" y="-144.8" display="inline" fill="url(#SVGID_1_)" width="720" height="360"/>
</g>
<g id="Layer_3">
	<path d="M5,51.8h6.7c2,0,3.3-0.4,3.9-1.1c0.7-0.7,1-1.8,1-3.1V5.3h20.2v45.6c0,5.7-1.3,9.7-3.9,12c-2.6,2.3-6.7,3.5-12.4,3.5H5
		V51.8z"/>
	<path d="M79.4,5.3h14.7l23.2,61.1H98l-2-5.5H77.5l-2,5.5H56.2L79.4,5.3z M90.8,47.5l-4.1-10.7l-4.1,10.7H90.8z"/>
	<path d="M136.9,5.3h16.1L169,28.8l15.9-23.5H201v61.1h-19.5v-22L169,62.8l-12.6-18.3v22h-19.5V5.3z"/>
	<path d="M225.7,5.3h20.7v61.1h-20.7V5.3z"/>
	<path d="M271.2,5.3h36v16h-16.5v6.8h16.2v15.2h-16.2v7.1h17.1v16h-36.6V5.3z"/>
</g>
<g id="Layer_1" display="none">
	<rect x="-99.4" y="-128.6" display="inline" fill="#64C2D0" width="56.2" height="56.2"/>
	<rect x="-99.4" y="-72.4" display="inline" fill="#5EA890" width="56.2" height="56.2"/>
	<rect x="-99.4" y="-16.1" display="inline" fill="#FFFBDE" width="56.2" height="56.2"/>
	<rect x="-99.4" y="40.1" display="inline" fill="#F5A84D" width="56.2" height="56.2"/>
	<rect x="-99.4" y="96.4" display="inline" fill="#CD2026" width="56.2" height="56.2"/>
	<rect x="-99.4" y="152.6" display="inline" fill="#6C110F" width="56.2" height="56.2"/>
</g>
<g id="Layer_4">
	<polygon fill="#FFFBDE" points="11.6,0 11.6,44.1 31.7,0 	"/>
	<polygon fill="#F5A84D" points="0,46.7 0,61.4 18.1,61.4 	"/>
	<polygon fill="#5EA890" points="31.7,0 31.7,49.8 11.6,44.1 	"/>
	<polygon fill="#5EA890" points="0,46.7 9,46.7 18.1,61.4 	"/>
	<polygon fill="#FFFBDE" points="31.7,49.8 30,55.2 13.5,54.1 	"/>
	<polygon fill="#FFFBDE" points="11.6,44.1 13.5,54.1 9,46.7 	"/>
	<polygon fill="#F5A84D" points="31.7,49.8 13.5,54.1 11.6,44.1 	"/>
	<polygon fill="#5EA890" points="30,55.2 25.4,59.4 13.5,54.1 	"/>
	<polygon fill="#FFFBDE" points="18.1,61.4 25.4,59.4 13.5,54.1 	"/>
	<polygon fill="#F5A84D" points="72.3,0 79.8,31.9 86.9,0 	"/>
	<polygon fill="#FFFBDE" points="86.9,0 79.8,31.9 110.1,61.4 	"/>
	<polygon fill="#FFFBDE" points="72.3,0 49.1,61.4 79.8,31.9 	"/>
	<polygon fill="#5EA890" points="68.4,61.4 49.1,61.4 79.8,31.9 	"/>
	<polygon fill="#5EA890" points="90.9,61.4 79.8,31.9 110.1,61.4 	"/>
	<polygon fill="#F5A84D" points="79.8,55.8 83.8,42.6 75.6,42.6 	"/>
	<polygon fill="#FFFBDE" points="88.8,55.8 79.8,55.8 83.8,42.6 	"/>
	<polygon fill="#FFFBDE" points="75.6,42.6 70.6,55.8 79.8,55.8 	"/>
	<polygon fill="#FFFBDE" points="163.9,57.7 186,23.8 140.7,23.8 	"/>
	<path fill="#5EA890" d="M179.8,0.2l6.2,23.6c0,0-21.6,0-22,0S179.8,0.2,179.8,0.2z"/>
	<polygon fill="#5EA890" points="147.9,0.2 140.7,23.8 164,23.8 	"/>
	<polygon fill="#F5A84D" points="132,0.2 140.7,23.8 147.9,0.2 	"/>
	<polygon fill="#F5A84D" points="179.8,0.2 195.8,0.2 186,23.8 	"/>
	<polygon fill="#F5A84D" points="176.1,61.4 176.1,39 195.8,61.4 	"/>
	<polygon fill="#F5A84D" points="151.3,61.4 151.3,39.3 132,61.4 	"/>
	<polygon fill="#5EA890" points="132,61.4 151.3,39.3 132,11.1 	"/>
	<polygon fill="#5EA890" points="176.1,39 195.8,61.4 195.8,8.3 	"/>
	<polygon fill="#FFFBDE" points="132,0.2 132,11.1 140.7,23.8 	"/>
	<polygon fill="#FFFBDE" points="186,23.8 195.8,0.2 195.8,8.3 	"/>
	<polygon fill="#5EA890" points="220.6,61.4 241.3,0.2 220.6,0.2 	"/>
	<polygon fill="#FFFBDE" points="241.3,61.4 234.3,20.8 220.6,61.4 	"/>
	<polygon fill="#F5A84D" points="241.3,0.2 234.3,20.8 241.3,61.4 	"/>
	<polygon fill="#F5A84D" points="266.5,0.2 285.6,16.2 302.1,0.2 	"/>
	<polygon fill="#FFFBDE" points="302.1,16.2 302.1,0.2 285.6,16.2 	"/>
	<polygon fill="#5EA890" points="266.5,0.2 266.5,61.4 285.6,16.2 	"/>
	<polygon fill="#FFFBDE" points="285.6,61.4 266.5,61.4 285.6,16.2 	"/>
	<polygon fill="#5EA890" points="302.1,38.2 285.6,23.1 302.1,23.1 	"/>
	<polygon fill="#F5A84D" points="285.6,38.2 285.6,23.1 302.1,38.2 	"/>
	<polygon fill="#5EA890" points="285.6,45.4 285.6,61.4 302.8,45.4 	"/>
	<polyline fill="#F5A84D" points="302.8,61.4 302.8,45.4 285.6,61.4 	"/>
</g>
<g id="Layer_6" display="none">
	<path display="inline" d="M348.3,47.5c1.3,0.4,2.7,0.8,4.2,1c1.2,0.3,2.6,0.5,4.2,0.7c1.6,0.2,3.1,0.3,4.7,0.3c2.8,0,4.2-1,4.2-3.1
		c0-0.8-0.4-1.6-1.3-2.4c-0.9-0.8-1.9-1.7-3.3-2.7c-1.3-1-2.7-2.1-4.2-3.3c-1.5-1.2-2.9-2.6-4.2-4.2c-1.3-1.6-2.4-3.4-3.3-5.4
		c-0.9-2-1.3-4.3-1.3-6.8c0-2.9,0.5-5.4,1.6-7.6c1-2.2,2.5-4,4.3-5.5c1.8-1.5,4-2.6,6.5-3.3c2.5-0.8,5.1-1.1,7.9-1.1
		c1.5,0,2.9,0.1,4.4,0.2c1.5,0.2,2.8,0.3,3.9,0.4c1.3,0.2,2.7,0.4,3.9,0.5v17.1c-0.5-0.1-1-0.1-1.6-0.2c-0.5-0.1-1-0.1-1.6-0.2
		c-0.6-0.1-1.3-0.1-1.9-0.1c-0.4,0-0.8,0-1.4,0c-0.5,0-1.1,0.1-1.6,0.2c-0.5,0.1-0.9,0.3-1.3,0.6c-0.4,0.3-0.5,0.7-0.5,1.3
		c0,0.5,0.4,1.1,1.2,1.8s1.8,1.6,3,2.6c1.2,1,2.5,2.1,3.9,3.4c1.4,1.3,2.7,2.7,3.9,4.4c1.2,1.6,2.2,3.5,3,5.6c0.8,2.1,1.2,4.4,1.2,7
		c0,2.7-0.4,5.2-1.3,7.6c-0.9,2.4-2.2,4.4-4,6.1c-1.8,1.7-4.1,3.1-6.9,4.1c-2.8,1-6.1,1.5-10,1.5c-2.3,0-4.5-0.1-6.5-0.3
		c-2-0.2-3.7-0.5-5.3-0.8c-1.8-0.3-3.4-0.7-4.9-1.1V47.5z"/>
	<path display="inline" d="M409.5,5.3h16.1l15.9,23.5l15.9-23.5h16.1v61.1H454v-22l-12.5,18.3L429,44.4v22h-19.5V5.3z"/>
	<path display="inline" d="M498.3,5.3H519v61.1h-20.7V5.3z"/>
	<path display="inline" d="M551.8,21.4h-11.3v-16h42.7v16H572v45.1h-20.2V21.4z"/>
	<path display="inline" d="M604.8,5.3h19.5v20.8h10.9V5.3h19.6v61.1h-19.6V43.8h-10.9v22.6h-19.5V5.3z"/>
	<polygon display="inline" fill="#FFFBDE" points="436.6,57.7 458.8,23.8 413.5,23.8 	"/>
	<path display="inline" fill="#5EA890" d="M452.6,0.2l6.2,23.6c0,0-21.6,0-22,0C436.3,23.8,452.6,0.2,452.6,0.2z"/>
	<polygon display="inline" fill="#5EA890" points="420.7,0.2 413.5,23.8 436.8,23.8 	"/>
	<polygon display="inline" fill="#F5A84D" points="404.7,0.2 413.5,23.8 420.7,0.2 	"/>
	<polygon display="inline" fill="#F5A84D" points="452.6,0.2 468.6,0.2 458.8,23.8 	"/>
	<polygon display="inline" fill="#F5A84D" points="448.9,61.4 448.9,39 468.6,61.4 	"/>
	<polygon display="inline" fill="#F5A84D" points="424.1,61.4 424.1,39.3 404.7,61.4 	"/>
	<polygon display="inline" fill="#5EA890" points="404.7,61.4 424.1,39.3 404.7,11.1 	"/>
	<polygon display="inline" fill="#5EA890" points="448.9,39 468.6,61.4 468.6,8.3 	"/>
	<polygon display="inline" fill="#FFFBDE" points="404.7,0.2 404.7,11.1 413.5,23.8 	"/>
	<polygon display="inline" fill="#FFFBDE" points="458.8,23.8 468.6,0.2 468.6,8.3 	"/>
	<polygon display="inline" fill="#5EA890" points="492.3,61.4 513,0.2 492.3,0.2 	"/>
	<polygon display="inline" fill="#FFFBDE" points="513,61.4 506.1,20.8 492.3,61.4 	"/>
	<polygon display="inline" fill="#F5A84D" points="513,0.2 506.1,20.8 513,61.4 	"/>
	<polygon display="inline" fill="#F5A84D" points="535.3,16.8 535.3,-0.1 546.8,16.8 	"/>
	<polygon display="inline" fill="#5EA890" points="578,16.8 578,-0.1 566.9,16.8 	"/>
	<polygon display="inline" fill="#FFFBDE" points="535.3,-0.1 556.7,32 578,-0.1 	"/>
	<polygon display="inline" fill="#5EA890" points="556.7,32 546.8,61.4 546.8,16.8 	"/>
	<polygon display="inline" fill="#F5A84D" points="566.9,16.8 556.7,32 566.9,61.4 	"/>
	<polygon display="inline" fill="#FFFBDE" points="546.8,61.4 566.9,61.4 556.7,32 	"/>
	<polygon display="inline" fill="#5EA890" points="599.6,61.4 619.2,0.4 599.6,0.4 	"/>
	<polygon display="inline" fill="#FFFBDE" points="630.2,61.4 649.8,0.4 630.2,0.4 	"/>
	<polygon display="inline" fill="#F5A84D" points="619.2,61.4 605.2,44.2 599.6,61.4 	"/>
	<polygon display="inline" fill="#FFFBDE" points="619.2,0.4 605.2,44.2 619.2,61.4 	"/>
	<polygon display="inline" fill="#F5A84D" points="649.8,61.4 635.8,44.2 630.2,61.4 	"/>
	<polygon display="inline" fill="#5EA890" points="649.8,0.4 635.8,44.2 649.8,61.4 	"/>
	<polygon display="inline" fill="#5EA890" points="630.2,38.8 619.2,38.8 619.2,21 	"/>
	<polygon display="inline" fill="#F5A84D" points="630.2,21 619.2,21 630.2,38.8 	"/>
	<polygon display="inline" fill="#FFFBDE" points="375.3,16.8 375.3,-0.1 347.1,5 	"/>
	<polygon display="inline" fill="#F5A84D" points="364.2,-1 347.1,5 375.3,-0.1 	"/>
	<polygon display="inline" fill="#5EA890" points="354.2,0.4 347.1,5 364.2,-1 	"/>
	<polygon display="inline" fill="#5EA890" points="375.3,16.8 343.5,15.9 352.2,7.1 	"/>
	<polygon display="inline" fill="#F5A84D" points="347.1,5 343.5,15.9 352.2,7.1 	"/>
	<polygon display="inline" fill="#FFFBDE" points="367.5,16.8 348.4,29.9 352.2,15.9 	"/>
	<polygon display="inline" fill="#F5A84D" points="343.5,15.9 348.4,29.9 352.2,15.9 	"/>
	<polygon display="inline" fill="#5EA890" points="365.7,18 364.2,42.9 348.4,29.9 	"/>
	<polygon display="inline" fill="#FFFBDE" points="343.5,42.9 343.5,60.7 364.2,44.9 	"/>
	<polygon display="inline" fill="#F5A84D" points="361.2,40.4 359.4,44.4 367.5,45.4 	"/>
	<polygon display="inline" fill="#5EA890" points="343.5,60.7 364.2,44.9 381.9,46.4 	"/>
	<polygon display="inline" fill="#FFFBDE" points="365.7,18.8 364.2,42.9 367.5,45.4 	"/>
	<polygon display="inline" fill="#F5A84D" points="381.9,46.4 365.7,18.8 367.5,45.4 	"/>
	<polygon display="inline" fill="#F5A84D" points="343.5,60.7 361.2,62.9 371.8,50.1 	"/>
	<polygon display="inline" fill="#F5A84D" points="381.9,46.4 377.8,56.5 371.8,50.1 	"/>
	<polygon display="inline" fill="#FFFBDE" points="361.2,62.9 377.8,56.5 371.8,50.1 	"/>
	<polygon display="inline" fill="#FFFBDE" points="366.9,20.8 379.2,32.6 381.9,46.4 	"/>
	<polygon display="inline" fill="#5EA890" points="377.8,56.5 370.4,61.4 361.2,62.9 	"/>
	<polygon display="inline" fill="#5EA890" points="343.5,15.9 344,22.4 348.4,29.9 	"/>
	<polygon display="inline" fill="#FFFBDE" points="347.1,5 343.5,11.2 343.5,15.9 	"/>
	<polygon display="inline" fill="#5EA890" points="381.9,46.4 380.6,51.9 377.8,56.5 	"/>
	<polygon display="inline" fill="#5EA890" points="379.4,33.6 381.9,39.5 381.9,46.4 	"/>
</g>
</svg>
