<?xml version="1.0" encoding="utf-8"?>
<!-- Generator: Adobe Illustrator 19.1.0, SVG Export Plug-In . SVG Version: 6.00 Build 0)  -->
<!DOCTYPE svg PUBLIC "-//W3C//DTD SVG 1.1//EN" "http://www.w3.org/Graphics/SVG/1.1/DTD/svg11.dtd">
<svg version="1.1" xmlns="http://www.w3.org/2000/svg" xmlns:xlink="http://www.w3.org/1999/xlink" x="0px" y="0px"
	 viewBox="0 0 649.8 63.9" enable-background="new 0 0 649.8 63.9" xml:space="preserve">
<g id="Layer_5" display="none">
	<rect x="-26.5" y="-148.8" display="inline" fill="#ED594F" width="721.2" height="360"/>
</g>
<g id="Layer_2" display="none">
	
		<radialGradient id="SVGID_1_" cx="334.6583" cy="31.1895" r="398.8237" gradientTransform="matrix(1 0 0 0.5998 0 12.4823)" gradientUnits="userSpaceOnUse">
		<stop  offset="0" style="stop-color:#F5A84D;stop-opacity:0.5"/>
		<stop  offset="0.3075" style="stop-color:#D0AA64;stop-opacity:0.6537"/>
		<stop  offset="1" style="stop-color:#5EA890"/>
	</radialGradient>
	<rect x="-25.3" y="-148.8" display="inline" fill="url(#SVGID_1_)" width="720" height="360"/>
</g>
<g id="Layer_3" display="none">
	<text transform="matrix(1 0 0 1 0 62.3995)" display="inline" font-family="'Phosphate-Solid'" font-size="91.6222px">J A M I E  S M I T H</text>
</g>
<g id="Layer_1" display="none">
	<rect x="-104.4" y="-132.6" display="inline" fill="#64C2D0" width="56.2" height="56.2"/>
	<rect x="-104.4" y="-76.4" display="inline" fill="#5EA890" width="56.2" height="56.2"/>
	<rect x="-104.4" y="-20.1" display="inline" fill="#FFFBDE" width="56.2" height="56.2"/>
	<rect x="-104.4" y="36.1" display="inline" fill="#F5A84D" width="56.2" height="56.2"/>
	<rect x="-104.4" y="92.4" display="inline" fill="#CD2026" width="56.2" height="56.2"/>
	<rect x="-104.4" y="148.6" display="inline" fill="#6C110F" width="56.2" height="56.2"/>
</g>
<g id="Layer_4">
	<g>
		<polygon fill="#FFFBDE" points="11.6,1 11.6,45 31.7,1 		"/>
		<polygon fill="#F5A84D" points="0,47.6 0,62.4 18.1,62.4 		"/>
		<polygon fill="#5EA890" points="31.7,1 31.7,50.8 11.6,45 		"/>
		<polygon fill="#5EA890" points="0,47.6 9,47.6 18.1,62.4 		"/>
		<polygon fill="#FFFBDE" points="31.7,50.8 30,56.2 13.5,55 		"/>
		<polygon fill="#FFFBDE" points="11.6,45 13.5,55 9,47.6 		"/>
		<polygon fill="#F5A84D" points="31.7,50.8 13.5,55 11.6,45 		"/>
		<polygon fill="#5EA890" points="30,56.2 25.4,60.3 13.5,55 		"/>
		<polygon fill="#FFFBDE" points="18.1,62.4 25.4,60.3 13.5,55 		"/>
		<polygon fill="#F5A84D" points="72.3,1 79.8,32.9 86.9,1 		"/>
		<polygon fill="#FFFBDE" points="86.9,1 79.8,32.9 110.1,62.4 		"/>
		<polygon fill="#FFFBDE" points="72.3,1 49.1,62.4 79.8,32.9 		"/>
		<polygon fill="#5EA890" points="68.4,62.4 49.1,62.4 79.8,32.9 		"/>
		<polygon fill="#5EA890" points="90.9,62.4 79.8,32.9 110.1,62.4 		"/>
		<polygon fill="#F5A84D" points="79.8,56.8 83.8,43.6 75.6,43.6 		"/>
		<polygon fill="#FFFBDE" points="88.8,56.8 79.8,56.8 83.8,43.6 		"/>
		<polygon fill="#FFFBDE" points="75.6,43.6 70.6,56.8 79.8,56.8 		"/>
		<polygon fill="#FFFBDE" points="163.9,58.7 186,24.8 140.7,24.8 		"/>
		<path fill="#5EA890" d="M179.8,1.2l6.2,23.6c0,0-21.6,0-22,0S179.8,1.2,179.8,1.2z"/>
		<polygon fill="#5EA890" points="147.9,1.2 140.7,24.8 164,24.8 		"/>
		<polygon fill="#F5A84D" points="132,1.2 140.7,24.8 147.9,1.2 		"/>
		<polygon fill="#F5A84D" points="179.8,1.2 195.8,1.2 186,24.8 		"/>
		<polygon fill="#F5A84D" points="176.1,62.4 176.1,39.9 195.8,62.4 		"/>
		<polygon fill="#F5A84D" points="151.3,62.4 151.3,40.3 132,62.4 		"/>
		<polygon fill="#5EA890" points="132,62.4 151.3,40.3 132,12.1 		"/>
		<polygon fill="#5EA890" points="176.1,39.9 195.8,62.4 195.8,9.3 		"/>
		<polygon fill="#FFFBDE" points="132,1.2 132,12.1 140.7,24.8 		"/>
		<polygon fill="#FFFBDE" points="186,24.8 195.8,1.2 195.8,9.3 		"/>
		<polygon fill="#5EA890" points="220.6,62.4 241.3,1.2 220.6,1.2 		"/>
		<polygon fill="#FFFBDE" points="241.3,62.4 234.3,21.7 220.6,62.4 		"/>
		<polygon fill="#F5A84D" points="241.3,1.2 234.3,21.7 241.3,62.4 		"/>
		<polygon fill="#FFFBDE" points="436.6,58.7 458.8,24.8 413.5,24.8 		"/>
		<path fill="#5EA890" d="M452.6,1.2l6.2,23.6c0,0-21.6,0-22,0C436.3,24.8,452.6,1.2,452.6,1.2z"/>
		<polygon fill="#5EA890" points="420.7,1.2 413.5,24.8 436.8,24.8 		"/>
		<polygon fill="#F5A84D" points="404.7,1.2 413.5,24.8 420.7,1.2 		"/>
		<polygon fill="#F5A84D" points="452.6,1.2 468.6,1.2 458.8,24.8 		"/>
		<polygon fill="#F5A84D" points="448.9,62.4 448.9,39.9 468.6,62.4 		"/>
		<polygon fill="#F5A84D" points="424.1,62.4 424.1,40.3 404.7,62.4 		"/>
		<polygon fill="#5EA890" points="404.7,62.4 424.1,40.3 404.7,12.1 		"/>
		<polygon fill="#5EA890" points="448.9,39.9 468.6,62.4 468.6,9.3 		"/>
		<polygon fill="#FFFBDE" points="404.7,1.2 404.7,12.1 413.5,24.8 		"/>
		<polygon fill="#FFFBDE" points="458.8,24.8 468.6,1.2 468.6,9.3 		"/>
		<polygon fill="#5EA890" points="492.3,62.4 513,1.2 492.3,1.2 		"/>
		<polygon fill="#FFFBDE" points="513,62.4 506.1,21.7 492.3,62.4 		"/>
		<polygon fill="#F5A84D" points="513,1.2 506.1,21.7 513,62.4 		"/>
		<polygon fill="#F5A84D" points="266.5,1.2 285.6,17.1 302.1,1.2 		"/>
		<polygon fill="#FFFBDE" points="302.1,17.1 302.1,1.2 285.6,17.1 		"/>
		<polygon fill="#5EA890" points="266.5,1.2 266.5,62.4 285.6,17.1 		"/>
		<polygon fill="#FFFBDE" points="285.6,62.4 266.5,62.4 285.6,17.1 		"/>
		<polygon fill="#5EA890" points="302.1,39.2 285.6,24 302.1,24 		"/>
		<polygon fill="#F5A84D" points="285.6,39.2 285.6,24 302.1,39.2 		"/>
		<polygon fill="#5EA890" points="285.6,46.4 285.6,62.4 302.8,46.4 		"/>
		<polyline fill="#F5A84D" points="302.8,62.4 302.8,46.4 285.6,62.4 		"/>
		<polygon fill="#F5A84D" points="535.3,17.7 535.3,0.8 546.8,17.7 		"/>
		<polygon fill="#5EA890" points="578,17.7 578,0.8 566.9,17.7 		"/>
		<polygon fill="#FFFBDE" points="535.3,0.8 556.7,33 578,0.8 		"/>
		<polygon fill="#5EA890" points="556.7,33 546.8,62.4 546.8,17.7 		"/>
		<polygon fill="#F5A84D" points="566.9,17.7 556.7,33 566.9,62.4 		"/>
		<polygon fill="#FFFBDE" points="546.8,62.4 566.9,62.4 556.7,33 		"/>
		<polygon fill="#5EA890" points="599.6,62.4 619.2,1.3 599.6,1.3 		"/>
		<polygon fill="#FFFBDE" points="630.2,62.4 649.8,1.3 630.2,1.3 		"/>
		<polygon fill="#F5A84D" points="619.2,62.4 605.2,45.2 599.6,62.4 		"/>
		<polygon fill="#FFFBDE" points="619.2,1.3 605.2,45.2 619.2,62.4 		"/>
		<polygon fill="#F5A84D" points="649.8,62.4 635.8,45.2 630.2,62.4 		"/>
		<polygon fill="#5EA890" points="649.8,1.3 635.8,45.2 649.8,62.4 		"/>
		<polygon fill="#5EA890" points="630.2,39.7 619.2,39.7 619.2,22 		"/>
		<polygon fill="#F5A84D" points="630.2,22 619.2,22 630.2,39.7 		"/>
		<polygon fill="#FFFBDE" points="375.3,17.7 375.3,0.8 347.1,6 		"/>
		<polygon fill="#F5A84D" points="364.2,0 347.1,6 375.3,0.8 		"/>
		<polygon fill="#5EA890" points="354.2,1.3 347.1,6 364.2,0 		"/>
		<polygon fill="#5EA890" points="375.3,17.7 343.5,16.9 352.2,8.1 		"/>
		<polygon fill="#F5A84D" points="347.1,6 343.5,16.9 352.2,8.1 		"/>
		<polygon fill="#FFFBDE" points="367.5,17.7 348.4,30.9 352.2,16.9 		"/>
		<polygon fill="#F5A84D" points="343.5,16.9 348.4,30.9 352.2,16.9 		"/>
		<polygon fill="#5EA890" points="365.7,18.9 364.2,43.8 348.4,30.9 		"/>
		<polygon fill="#FFFBDE" points="343.5,43.8 343.5,61.7 364.2,45.9 		"/>
		<polygon fill="#F5A84D" points="361.2,41.4 359.4,45.4 367.5,46.4 		"/>
		<polygon fill="#5EA890" points="343.5,61.7 364.2,45.9 381.9,47.3 		"/>
		<polygon fill="#FFFBDE" points="365.7,19.7 364.2,43.8 367.5,46.4 		"/>
		<polygon fill="#F5A84D" points="381.9,47.3 365.7,19.7 367.5,46.4 		"/>
		<polygon fill="#F5A84D" points="343.5,61.7 361.2,63.9 371.8,51.1 		"/>
		<polygon fill="#F5A84D" points="381.9,47.3 377.8,57.5 371.8,51.1 		"/>
		<polygon fill="#FFFBDE" points="361.2,63.9 377.8,57.5 371.8,51.1 		"/>
		<polygon fill="#FFFBDE" points="366.9,21.7 379.2,33.5 381.9,47.3 		"/>
		<polygon fill="#5EA890" points="377.8,57.5 370.4,62.4 361.2,63.9 		"/>
		<polygon fill="#5EA890" points="343.5,16.9 344,23.4 348.4,30.9 		"/>
		<polygon fill="#FFFBDE" points="347.1,6 343.5,12.2 343.5,16.9 		"/>
		<polygon fill="#5EA890" points="381.9,47.3 380.6,52.8 377.8,57.5 		"/>
		<polygon fill="#5EA890" points="379.4,34.5 381.9,40.5 381.9,47.3 		"/>
	</g>
</g>
</svg>
