<?xml version="1.0" encoding="utf-8"?>
<!-- Generator: Adobe Illustrator 19.1.0, SVG Export Plug-In . SVG Version: 6.00 Build 0)  -->
<!DOCTYPE svg PUBLIC "-//W3C//DTD SVG 1.1//EN" "http://www.w3.org/Graphics/SVG/1.1/DTD/svg11.dtd">
<svg version="1.1" xmlns="http://www.w3.org/2000/svg" xmlns:xlink="http://www.w3.org/1999/xlink" x="0px" y="0px"
	 viewBox="0 0 311.3 69" enable-background="new 0 0 311.3 69" xml:space="preserve">
<g id="Layer_5" display="none">
	<rect x="-365" y="-143.8" display="inline" fill="#ED594F" width="721.2" height="360"/>
</g>
<g id="Layer_2" display="none">
	
		<radialGradient id="SVGID_1_" cx="-3.8613" cy="36.1895" r="398.8237" gradientTransform="matrix(1 0 0 0.5998 0 14.4833)" gradientUnits="userSpaceOnUse">
		<stop  offset="0" style="stop-color:#F5A84D;stop-opacity:0.5"/>
		<stop  offset="0.3075" style="stop-color:#D0AA64;stop-opacity:0.6537"/>
		<stop  offset="1" style="stop-color:#5EA890"/>
	</radialGradient>
	<rect x="-363.9" y="-143.8" display="inline" fill="url(#SVGID_1_)" width="720" height="360"/>
</g>
<g id="Layer_3">
</g>
<g id="Layer_1" display="none">
	<rect x="-442.9" y="-127.6" display="inline" fill="#64C2D0" width="56.2" height="56.2"/>
	<rect x="-442.9" y="-71.4" display="inline" fill="#5EA890" width="56.2" height="56.2"/>
	<rect x="-442.9" y="-15.1" display="inline" fill="#FFFBDE" width="56.2" height="56.2"/>
	<rect x="-442.9" y="41.1" display="inline" fill="#F5A84D" width="56.2" height="56.2"/>
	<rect x="-442.9" y="97.4" display="inline" fill="#CD2026" width="56.2" height="56.2"/>
	<rect x="-442.9" y="153.6" display="inline" fill="#6C110F" width="56.2" height="56.2"/>
</g>
<g id="Layer_4" display="none">
	<polygon display="inline" fill="#FFFBDE" points="-331.9,1 -331.9,45 -311.9,1 	"/>
	<polygon display="inline" fill="#F5A84D" points="-343.5,47.6 -343.5,62.4 -325.5,62.4 	"/>
	<polygon display="inline" fill="#5EA890" points="-311.9,1 -311.9,50.8 -331.9,45 	"/>
	<polygon display="inline" fill="#5EA890" points="-343.5,47.6 -334.5,47.6 -325.5,62.4 	"/>
	<polygon display="inline" fill="#FFFBDE" points="-311.9,50.8 -313.5,56.2 -330,55 	"/>
	<polygon display="inline" fill="#FFFBDE" points="-331.9,45 -330,55 -334.5,47.6 	"/>
	<polygon display="inline" fill="#F5A84D" points="-311.9,50.8 -330,55 -331.9,45 	"/>
	<polygon display="inline" fill="#5EA890" points="-313.5,56.2 -318.1,60.3 -330,55 	"/>
	<polygon display="inline" fill="#FFFBDE" points="-325.5,62.4 -318.1,60.3 -330,55 	"/>
	<polygon display="inline" fill="#F5A84D" points="-271.3,1 -263.8,32.9 -256.6,1 	"/>
	<polygon display="inline" fill="#FFFBDE" points="-256.6,1 -263.8,32.9 -233.5,62.4 	"/>
	<polygon display="inline" fill="#FFFBDE" points="-271.3,1 -294.4,62.4 -263.8,32.9 	"/>
	<polygon display="inline" fill="#5EA890" points="-275.1,62.4 -294.4,62.4 -263.8,32.9 	"/>
	<polygon display="inline" fill="#5EA890" points="-252.6,62.4 -263.8,32.9 -233.5,62.4 	"/>
	<polygon display="inline" fill="#F5A84D" points="-263.8,56.8 -259.7,43.6 -267.9,43.6 	"/>
	<polygon display="inline" fill="#FFFBDE" points="-254.7,56.8 -263.8,56.8 -259.7,43.6 	"/>
	<polygon display="inline" fill="#FFFBDE" points="-267.9,43.6 -272.9,56.8 -263.8,56.8 	"/>
	<polygon display="inline" fill="#FFFBDE" points="-179.6,58.7 -157.5,24.8 -202.8,24.8 	"/>
	<path display="inline" fill="#5EA890" d="M-163.7,1.2l6.2,23.6c0,0-21.6,0-22,0S-163.7,1.2-163.7,1.2z"/>
	<polygon display="inline" fill="#5EA890" points="-195.6,1.2 -202.8,24.8 -179.5,24.8 	"/>
	<polygon display="inline" fill="#F5A84D" points="-211.5,1.2 -202.8,24.8 -195.6,1.2 	"/>
	<polygon display="inline" fill="#F5A84D" points="-163.7,1.2 -147.7,1.2 -157.5,24.8 	"/>
	<polygon display="inline" fill="#F5A84D" points="-167.4,62.4 -167.4,39.9 -147.7,62.4 	"/>
	<polygon display="inline" fill="#F5A84D" points="-192.2,62.4 -192.2,40.3 -211.5,62.4 	"/>
	<polygon display="inline" fill="#5EA890" points="-211.5,62.4 -192.2,40.3 -211.5,12.1 	"/>
	<polygon display="inline" fill="#5EA890" points="-167.4,39.9 -147.7,62.4 -147.7,9.3 	"/>
	<polygon display="inline" fill="#FFFBDE" points="-211.5,1.2 -211.5,12.1 -202.8,24.8 	"/>
	<polygon display="inline" fill="#FFFBDE" points="-157.5,24.8 -147.7,1.2 -147.7,9.3 	"/>
	<polygon display="inline" fill="#5EA890" points="-122.9,62.4 -102.2,1.2 -122.9,1.2 	"/>
	<polygon display="inline" fill="#FFFBDE" points="-102.2,62.4 -109.2,21.7 -122.9,62.4 	"/>
	<polygon display="inline" fill="#F5A84D" points="-102.2,1.2 -109.2,21.7 -102.2,62.4 	"/>
	<polygon display="inline" fill="#F5A84D" points="-77,1.2 -57.9,17.1 -41.4,1.2 	"/>
	<polygon display="inline" fill="#FFFBDE" points="-41.4,17.1 -41.4,1.2 -57.9,17.1 	"/>
	<polygon display="inline" fill="#5EA890" points="-77,1.2 -77,62.4 -57.9,17.1 	"/>
	<polygon display="inline" fill="#FFFBDE" points="-57.9,62.4 -77,62.4 -57.9,17.1 	"/>
	<polygon display="inline" fill="#5EA890" points="-41.4,39.2 -57.9,24 -41.4,24 	"/>
	<polygon display="inline" fill="#F5A84D" points="-57.9,39.2 -57.9,24 -41.4,39.2 	"/>
	<polygon display="inline" fill="#5EA890" points="-57.9,46.4 -57.9,62.4 -40.7,46.4 	"/>
	<polyline display="inline" fill="#F5A84D" points="-40.7,62.4 -40.7,46.4 -57.9,62.4 	"/>
	<path display="inline" d="M-338.5,52.7h6.7c2,0,3.3-0.4,3.9-1.1c0.7-0.7,1-1.8,1-3.1V6.3h20.2v45.6c0,5.7-1.3,9.7-3.9,12
		c-2.6,2.3-6.7,3.5-12.4,3.5h-15.5V52.7z"/>
	<path display="inline" d="M-264.1,6.3h14.7l23.2,61.1h-19.2l-2-5.5H-266l-2,5.5h-19.2L-264.1,6.3z M-252.7,48.4l-4.1-10.7
		l-4.1,10.7H-252.7z"/>
	<path display="inline" d="M-206.6,6.3h16.1l15.9,23.5l15.9-23.5h16.1v61.1h-19.5v-22l-12.5,18.3l-12.6-18.3v22h-19.5V6.3z"/>
	<path display="inline" d="M-117.8,6.3h20.7v61.1h-20.7V6.3z"/>
	<path display="inline" d="M-72.4,6.3h36v16h-16.5v6.8h16.2v15.2h-16.2v7.1h17.1v16h-36.6V6.3z"/>
</g>
<g id="Layer_6">
	<path d="M4.8,48.4c1.3,0.4,2.7,0.8,4.2,1c1.2,0.3,2.6,0.5,4.2,0.7c1.6,0.2,3.1,0.3,4.7,0.3c2.8,0,4.2-1,4.2-3.1
		c0-0.8-0.4-1.6-1.3-2.4c-0.9-0.8-1.9-1.7-3.3-2.7c-1.3-1-2.7-2.1-4.2-3.3c-1.5-1.2-2.9-2.6-4.2-4.2c-1.3-1.6-2.4-3.4-3.3-5.4
		c-0.9-2-1.3-4.3-1.3-6.8c0-2.9,0.5-5.4,1.6-7.6c1-2.2,2.5-4,4.3-5.5c1.8-1.5,4-2.6,6.5-3.3c2.5-0.8,5.1-1.1,7.9-1.1
		c1.5,0,2.9,0.1,4.4,0.2c1.5,0.2,2.8,0.3,3.9,0.4c1.3,0.2,2.7,0.4,3.9,0.5v17.1c-0.5-0.1-1-0.1-1.6-0.2c-0.5-0.1-1-0.1-1.6-0.2
		c-0.6-0.1-1.3-0.1-1.9-0.1c-0.4,0-0.8,0-1.4,0c-0.5,0-1.1,0.1-1.6,0.2c-0.5,0.1-0.9,0.3-1.3,0.6c-0.4,0.3-0.5,0.7-0.5,1.3
		c0,0.5,0.4,1.1,1.2,1.8s1.8,1.6,3,2.6c1.2,1,2.5,2.1,3.9,3.4c1.4,1.3,2.7,2.7,3.9,4.4c1.2,1.6,2.2,3.5,3,5.6c0.8,2.1,1.2,4.4,1.2,7
		c0,2.7-0.4,5.2-1.3,7.6c-0.9,2.4-2.2,4.4-4,6.1c-1.8,1.7-4.1,3.1-6.9,4.1c-2.8,1-6.1,1.5-10,1.5c-2.3,0-4.5-0.1-6.5-0.3
		c-2-0.2-3.7-0.5-5.3-0.8c-1.8-0.3-3.4-0.7-4.9-1.1V48.4z"/>
	<path d="M66,6.3h16.1l15.9,23.5l15.9-23.5H130v61.1h-19.5v-22L98.1,63.7L85.5,45.4v22H66V6.3z"/>
	<path d="M154.8,6.3h20.7v61.1h-20.7V6.3z"/>
	<path d="M208.3,22.3H197v-16h42.7v16h-11.3v45.1h-20.2V22.3z"/>
	<path d="M261.2,6.3h19.5v20.8h10.9V6.3h19.6v61.1h-19.6V44.8h-10.9v22.6h-19.5V6.3z"/>
	<polygon fill="#FFFBDE" points="93.1,58.7 115.2,24.8 69.9,24.8 	"/>
	<path fill="#5EA890" d="M109.1,1.2l6.2,23.6c0,0-21.6,0-22,0C92.8,24.8,109.1,1.2,109.1,1.2z"/>
	<polygon fill="#5EA890" points="77.1,1.2 69.9,24.8 93.3,24.8 	"/>
	<polygon fill="#F5A84D" points="61.2,1.2 69.9,24.8 77.1,1.2 	"/>
	<polygon fill="#F5A84D" points="109.1,1.2 125.1,1.2 115.2,24.8 	"/>
	<polygon fill="#F5A84D" points="105.4,62.4 105.4,39.9 125.1,62.4 	"/>
	<polygon fill="#F5A84D" points="80.5,62.4 80.5,40.3 61.2,62.4 	"/>
	<polygon fill="#5EA890" points="61.2,62.4 80.5,40.3 61.2,12.1 	"/>
	<polygon fill="#5EA890" points="105.4,39.9 125.1,62.4 125.1,9.3 	"/>
	<polygon fill="#FFFBDE" points="61.2,1.2 61.2,12.1 69.9,24.8 	"/>
	<polygon fill="#FFFBDE" points="115.2,24.8 125.1,1.2 125.1,9.3 	"/>
	<polygon fill="#5EA890" points="148.8,62.4 169.5,1.2 148.8,1.2 	"/>
	<polygon fill="#FFFBDE" points="169.5,62.4 162.6,21.7 148.8,62.4 	"/>
	<polygon fill="#F5A84D" points="169.5,1.2 162.6,21.7 169.5,62.4 	"/>
	<polygon fill="#F5A84D" points="191.8,17.7 191.8,0.8 203.3,17.7 	"/>
	<polygon fill="#5EA890" points="234.5,17.7 234.5,0.8 223.4,17.7 	"/>
	<polygon fill="#FFFBDE" points="191.8,0.8 213.1,33 234.5,0.8 	"/>
	<polygon fill="#5EA890" points="213.1,33 203.3,62.4 203.3,17.7 	"/>
	<polygon fill="#F5A84D" points="223.4,17.7 213.1,33 223.4,62.4 	"/>
	<polygon fill="#FFFBDE" points="203.3,62.4 223.4,62.4 213.1,33 	"/>
	<polygon fill="#5EA890" points="256.1,62.4 275.7,1.3 256.1,1.3 	"/>
	<polygon fill="#FFFBDE" points="286.7,62.4 306.3,1.3 286.7,1.3 	"/>
	<polygon fill="#F5A84D" points="275.7,62.4 261.6,45.2 256.1,62.4 	"/>
	<polygon fill="#FFFBDE" points="275.7,1.3 261.6,45.2 275.7,62.4 	"/>
	<polygon fill="#F5A84D" points="306.3,62.4 292.2,45.2 286.7,62.4 	"/>
	<polygon fill="#5EA890" points="306.3,1.3 292.2,45.2 306.3,62.4 	"/>
	<polygon fill="#5EA890" points="286.7,39.7 275.7,39.7 275.7,22 	"/>
	<polygon fill="#F5A84D" points="286.7,22 275.7,22 286.7,39.7 	"/>
	<polygon fill="#FFFBDE" points="31.8,17.7 31.8,0.8 3.6,6 	"/>
	<polygon fill="#F5A84D" points="20.7,0 3.6,6 31.8,0.8 	"/>
	<polygon fill="#5EA890" points="10.6,1.3 3.6,6 20.7,0 	"/>
	<polygon fill="#5EA890" points="31.8,17.7 0,16.9 8.7,8.1 	"/>
	<polygon fill="#F5A84D" points="3.6,6 0,16.9 8.7,8.1 	"/>
	<polygon fill="#FFFBDE" points="24,17.7 4.9,30.9 8.7,16.9 	"/>
	<polygon fill="#F5A84D" points="0,16.9 4.9,30.9 8.7,16.9 	"/>
	<polygon fill="#5EA890" points="22.2,18.9 20.7,43.8 4.9,30.9 	"/>
	<polygon fill="#FFFBDE" points="0,43.8 0,61.7 20.7,45.9 	"/>
	<polygon fill="#F5A84D" points="17.7,41.4 15.9,45.4 24,46.4 	"/>
	<polygon fill="#5EA890" points="0,61.7 20.7,45.9 38.4,47.3 	"/>
	<polygon fill="#FFFBDE" points="22.2,19.7 20.7,43.8 24,46.4 	"/>
	<polygon fill="#F5A84D" points="38.4,47.3 22.2,19.7 24,46.4 	"/>
	<polygon fill="#F5A84D" points="0,61.7 17.7,63.9 28.3,51.1 	"/>
	<polygon fill="#F5A84D" points="38.4,47.3 34.3,57.5 28.3,51.1 	"/>
	<polygon fill="#FFFBDE" points="17.7,63.9 34.3,57.5 28.3,51.1 	"/>
	<polygon fill="#FFFBDE" points="23.4,21.7 35.7,33.5 38.4,47.3 	"/>
	<polygon fill="#5EA890" points="34.3,57.5 26.9,62.4 17.7,63.9 	"/>
	<polygon fill="#5EA890" points="0,16.9 0.4,23.4 4.9,30.9 	"/>
	<polygon fill="#FFFBDE" points="3.6,6 0,12.2 0,16.9 	"/>
	<polygon fill="#5EA890" points="38.4,47.3 37.1,52.8 34.3,57.5 	"/>
	<polygon fill="#5EA890" points="35.9,34.5 38.4,40.5 38.4,47.3 	"/>
</g>
</svg>
