<?xml version="1.0" encoding="utf-8"?>
<!-- Generator: Adobe Illustrator 19.1.0, SVG Export Plug-In . SVG Version: 6.00 Build 0)  -->
<!DOCTYPE svg PUBLIC "-//W3C//DTD SVG 1.1//EN" "http://www.w3.org/Graphics/SVG/1.1/DTD/svg11.dtd">
<svg version="1.1" id="Layer_1" xmlns="http://www.w3.org/2000/svg" xmlns:xlink="http://www.w3.org/1999/xlink" x="0px" y="0px"
	 viewBox="0 0 35.4 35.4" style="enable-background:new 0 0 35.4 35.4;" xml:space="preserve">
<style type="text/css">
	.st0{fill:#00696A;}
	.st1{fill:#FFFFFF;}
</style>
<rect x="-149.3" class="st0" width="35.4" height="35.4"/>
<rect x="-74.7" class="st0" width="35.4" height="35.4"/>
<rect class="st0" width="35.4" height="35.4"/>
<rect x="74.7" class="st0" width="35.4" height="35.4"/>
<rect x="149.3" class="st0" width="35.4" height="35.4"/>
<path class="st1" d="M-69.8,26.1c2.9,0.2,5.4-0.4,7.7-2.2c-2.4-0.3-4-1.5-4.9-3.7c0.8,0,1.4,0,2.1,0c0,0,0-0.1,0-0.1
	c-2.5-0.8-3.8-2.5-4-5.2c0.8,0.2,1.5,0.4,2.1,0.6c0,0,0.1-0.1,0.1-0.1c-1.4-1.1-2.2-2.6-2.2-4.3c0-0.9,0.2-1.8,0.7-2.6
	c0.2,0.2,0.3,0.3,0.4,0.4c2.6,2.9,5.8,4.5,9.6,5c0.7,0.1,0.8,0.1,0.7-0.6c-0.2-3,1.9-5.2,4.1-5.7c1.8-0.4,3.4,0.1,4.8,1.2
	c0.3,0.2,0.5,0.3,0.8,0.2c0.7-0.3,1.5-0.6,2.2-0.8c0.2-0.1,0.3-0.2,0.6-0.3c-0.4,1.2-1.1,2-2,2.7c0,0,0,0.1,0.1,0.1
	c0.8-0.2,1.6-0.4,2.4-0.6c0,0,0.1,0.1,0.1,0.1c-0.3,0.4-0.6,0.8-0.9,1.1c-0.4,0.4-0.7,0.7-1.1,1c-0.3,0.3-0.4,0.5-0.4,0.9
	c0,2.5-0.5,4.8-1.7,7c-2.4,4.7-6.2,7.4-11.5,8.1c-3.5,0.4-6.7-0.2-9.8-2C-69.6,26.2-69.7,26.2-69.8,26.1z"/>
<path class="st1" d="M19.3,13.1c0.1-0.4,0.2-0.7,0.4-1.1c0.6-1.4,1.3-2.7,2.7-3.6c1.6-1,3.3-1.3,5.1-0.8c1.3,0.4,1.9,1.5,2.1,2.8
	c0.3,2-0.2,3.9-1,5.6c-1.3,2.5-2.9,4.8-4.7,7c-0.8,1-1.7,1.9-2.6,2.8c-1,1-2.1,1.8-3.4,2.2c-1.9,0.6-2.9,0.1-4-1.4
	c-0.6-0.9-1-1.9-1.3-2.9c-0.7-2.6-1.4-5.1-2.1-7.7c-0.2-0.7-0.6-1.4-0.9-2.1c-0.1-0.2-0.3-0.4-0.5-0.5c-0.3-0.2-0.6-0.3-0.9-0.1
	c-0.4,0.3-0.9,0.5-1.3,0.8c-0.2,0.1-0.3,0.1-0.4-0.1c-0.3-0.4-0.5-0.7-0.8-1.1c-0.1-0.1,0-0.3,0-0.4c1.5-1.4,3.1-2.7,4.7-4
	c0.6-0.5,1.3-0.9,2.1-1.1c1.2-0.2,2.3,0.3,2.9,1.4c0.6,1.2,0.8,2.4,1,3.7c0.3,2.1,0.6,4.2,1.3,6.3c0.1,0.4,0.3,0.8,0.5,1.2
	c0.4,0.6,0.9,0.7,1.4,0.2c0.5-0.6,1-1.1,1.4-1.8c0.5-0.8,0.9-1.6,1.4-2.5c0.3-0.6,0.4-1.2,0.4-1.9c0-1.2-0.8-1.7-1.9-1.6
	C20.4,12.8,19.9,13,19.3,13.1z"/>
<path class="st1" d="M82.2,18.2c0-1.4,0-2.8,0-4.1C82.2,15.4,82.2,16.8,82.2,18.2l0,2.3C82.2,19.7,82.2,18.9,82.2,18.2z"/>
<path class="st1" d="M102.5,10.8c0-1.9-0.8-2.7-2.7-2.7c-5,0-9.9,0-14.9,0c-1.9,0-2.7,0.8-2.7,2.8c0,1,0,2.1,0,3.1
	c0,1.4,0,2.8,0,4.1c0,0.8,0,1.6,0,2.3c0,1.8,0,3.5,0,5.3c0,1.8,0.8,2.6,2.6,2.6c5,0,10,0,15,0c1.8,0,2.7-0.8,2.7-2.7
	C102.5,20.8,102.5,15.8,102.5,10.8z M92.3,14.3c2.2,0,4,1.8,4,4c0,2.2-1.8,4-4,4c-2.2,0-4-1.9-3.9-4.1
	C88.4,16.1,90.2,14.3,92.3,14.3z M100.3,24.9c0,1-0.3,1.4-1.3,1.4c-4.5,0-8.9,0-13.4,0c-1,0-1.3-0.4-1.3-1.3c0-2.2,0-4.5,0-6.7
	c0-1.5,0.2-1.6,1.7-1.2c0.5,4.9,2.5,7.3,6.1,7.3c3.7,0.1,5.6-2.1,6.4-7.4c1.1-0.4,1.7-0.2,1.7,1.2C100.3,20.4,100.3,22.7,100.3,24.9
	z M98.3,14.4c-1.9,0-2.1-0.1-2.1-2c0-1.9,0.1-2.1,2-2.1c1.9,0,2.1,0.2,2.1,2C100.3,14.2,100.1,14.4,98.3,14.4z"/>
<path class="st0" d="M100.3,24.9c0,1-0.3,1.4-1.3,1.4c-4.5,0-8.9,0-13.4,0c-1,0-1.3-0.4-1.3-1.3c0-2.2,0-4.5,0-6.7
	c0-1.5,0.2-1.6,1.7-1.2c0.5,4.9,2.5,7.3,6.1,7.3c3.7,0.1,5.6-2.1,6.4-7.4c1.1-0.4,1.7-0.2,1.7,1.2C100.3,20.4,100.3,22.7,100.3,24.9
	z"/>
<path class="st0" d="M96.3,18.3c0,2.2-1.8,4-4,4c-2.2,0-4-1.9-3.9-4.1c0.1-2.1,1.8-3.9,4-3.9C94.5,14.3,96.3,16.1,96.3,18.3z"/>
<path class="st0" d="M100.3,12.3c0,1.9-0.2,2.1-2,2.1c-1.9,0-2.1-0.1-2.1-2c0-1.9,0.1-2.1,2-2.1C100.1,10.3,100.3,10.5,100.3,12.3z"
	/>
<path class="st1" d="M167,7.3c3.1,0,6.2,0,9.3,0c0.8,0,1.3,0.5,1.3,1.3c0,6.2,0,12.4,0,18.7c0,0.8-0.5,1.3-1.2,1.3
	c-1.7,0-3.4,0-5.1,0c-0.2,0-0.2,0-0.2-0.2c0-2.6,0-5.2,0-7.7c0-0.2,0-0.2,0.2-0.2c0.8,0,1.6,0,2.4,0c0.1,0,0.2,0,0.2-0.2
	c0.1-1,0.3-2,0.4-2.9c0-0.1,0-0.2-0.2-0.2c-0.9,0-1.9,0-2.8,0c-0.2,0-0.2,0-0.2-0.2c0-0.7,0-1.4,0-2.1c0-0.7,0.4-1.1,1-1.2
	c0.2,0,0.4,0,0.6-0.1c0.5,0,1,0,1.5,0c0.1,0,0.2,0,0.2-0.2c0-0.9,0-1.7,0-2.6c0-0.1,0-0.2-0.2-0.2c-1-0.1-1.9-0.2-2.9-0.1
	c-1.8,0.2-3.2,1.2-3.5,3.1c-0.1,0.4-0.1,0.8-0.1,1.2c0,0.7,0,1.3,0,2c0,0.2,0,0.2-0.2,0.2c-0.8,0-1.6,0-2.3,0c-0.2,0-0.2,0-0.2,0.2
	c0,1,0,1.9,0,2.9c0,0.2,0,0.2,0.2,0.2c0.8,0,1.6,0,2.4,0c0.1,0,0.2,0,0.2,0.2c0,2.6,0,5.2,0,7.8c0,0.1,0,0.2-0.2,0.2
	c-3.3,0-6.6,0-9.9,0c-0.7,0-1.2-0.5-1.2-1.2c0-6.3,0-12.6,0-18.8c0-0.7,0.5-1.2,1.2-1.2C160.7,7.3,163.9,7.3,167,7.3z"/>
<path class="st1" d="M-130.8,7.3c0.1,0,0.1,0,0.2,0c1.8,0.1,3.4,0.7,4.7,1.8c1.1,1,1.9,2.2,2.2,3.6c0.1,0.5,0.2,0.9,0.2,1.4
	c0,1-0.1,2-0.3,2.9c-0.3,1-0.7,1.9-1.2,2.8c-0.5,0.8-1.2,1.4-2,1.9c-0.6,0.4-1.3,0.6-2,0.7c-0.2,0-0.5,0.1-0.7,0.1
	c-0.9,0-1.8-0.2-2.5-0.7c-0.3-0.2-0.5-0.4-0.6-0.7c0,0,0,0-0.1-0.1c0,0,0,0.1,0,0.1c-0.2,0.8-0.4,1.6-0.6,2.4
	c-0.1,0.3-0.1,0.5-0.2,0.8c-0.1,0.5-0.3,1-0.6,1.4c-0.4,0.9-1,1.7-1.6,2.5c0,0,0,0.1-0.1,0.1c-0.1,0.1-0.2,0.1-0.3-0.1
	c0-0.1,0-0.2,0-0.2c-0.1-0.8-0.2-1.5-0.2-2.3c0-0.8,0.1-1.6,0.3-2.4c0.4-1.6,0.7-3.1,1.1-4.7c0.1-0.5,0.2-1,0.4-1.6
	c0-0.1,0-0.2,0-0.2c-0.3-0.6-0.4-1.3-0.3-2c0-0.5,0.1-0.9,0.3-1.4c0.2-0.4,0.4-0.7,0.7-1c0.3-0.3,0.7-0.5,1.1-0.6c0.3,0,0.7,0,1,0.1
	c0.3,0.1,0.5,0.4,0.7,0.7c0.1,0.2,0.2,0.5,0.2,0.8c0,0.3,0,0.6-0.1,0.9c-0.1,0.5-0.2,1-0.4,1.6c-0.2,0.6-0.3,1.1-0.5,1.7
	c-0.1,0.2-0.1,0.4-0.1,0.6c-0.1,0.3,0,0.6,0,0.8c0.2,0.6,0.6,1.1,1.2,1.3c0.5,0.2,1,0.1,1.5,0c0.4-0.1,0.8-0.4,1.1-0.7
	c0.3-0.3,0.6-0.7,0.8-1.1c0.3-0.6,0.6-1.2,0.8-1.9c0.1-0.5,0.2-1.1,0.3-1.6c0-0.4,0.1-0.8,0.1-1.2c0-0.6-0.1-1.2-0.4-1.8
	c-0.4-1-1.1-1.7-2.1-2.2c-0.5-0.2-1.1-0.4-1.6-0.5c-0.4-0.1-0.9-0.1-1.3-0.1c-1.1,0.1-2.1,0.3-3.1,0.9c-1.3,0.8-2.1,2-2.4,3.4
	c-0.1,0.6-0.2,1.1-0.2,1.7c0,0.4,0.1,0.8,0.2,1.2c0.1,0.3,0.3,0.6,0.5,0.9c0.1,0.1,0.1,0.1,0.2,0.2c0.1,0.1,0.1,0.2,0.1,0.4
	c0,0,0,0.1,0,0.1c-0.1,0.3-0.2,0.7-0.3,1c0,0.1,0,0.1-0.1,0.2c-0.1,0.2-0.3,0.3-0.4,0.2c-0.1,0-0.1,0-0.2-0.1
	c-0.6-0.2-1-0.6-1.4-1.1c-0.4-0.5-0.6-1-0.8-1.6c-0.1-0.5-0.2-0.9-0.2-1.4c0-0.1,0-0.2-0.1-0.3c0-0.1,0-0.3,0-0.4
	c0.1-0.1,0.1-0.2,0.1-0.3c0-0.3,0.1-0.6,0.1-0.9c0.2-1.2,0.7-2.2,1.5-3.1c0.9-1.1,2-1.9,3.3-2.4c1-0.4,2.1-0.6,3.2-0.7
	c0.1,0,0.1,0,0.2,0C-131.3,7.3-131,7.3-130.8,7.3z"/>
</svg>
