<?xml version="1.0" encoding="utf-8"?>
<!-- Generator: Adobe Illustrator 19.1.0, SVG Export Plug-In . SVG Version: 6.00 Build 0)  -->
<!DOCTYPE svg PUBLIC "-//W3C//DTD SVG 1.1//EN" "http://www.w3.org/Graphics/SVG/1.1/DTD/svg11.dtd">
<svg version="1.1" xmlns="http://www.w3.org/2000/svg" xmlns:xlink="http://www.w3.org/1999/xlink" x="0px" y="0px"
	 viewBox="0 0 140.8 180.7" style="enable-background:new 0 0 140.8 180.7;" xml:space="preserve">
<style type="text/css">
	.st0{fill:#00696A;}
	.st1{fill:#383B43;}
</style>
<g id="Layer_1">
</g>
<g id="art">
	<g>
		<path d="M49.1,81.6c0-0.3-0.1-0.6,0-0.9C49.1,81,49.1,81.3,49.1,81.6z"/>
		<path d="M49.1,80.7c0,0.3,0,0.6,0,0.9C49.1,81.3,49.1,81,49.1,80.7z M84.2,72.8C84.2,72.8,84.2,72.8,84.2,72.8
			C84.2,72.8,84.2,72.8,84.2,72.8c0,0.1-0.1,0.1-0.1,0.1C84.1,73.1,84.4,72.8,84.2,72.8z"/>
		<g>
			<g>
				<path class="st0" d="M70.5,113c4.1,5.1,5.8,16.7,3.2,22.2c-1.3,2.8-3.3,3.4-4.8,3.4c-1.8,0-3.4-0.7-4.6-2
					c-2.7-3-2.7-8.5-2.6-10.1h2.3c-0.1,1.8,0,6.4,2,8.5c0.7,0.8,1.7,1.2,2.8,1.2c0.4,0,1.7,0,2.7-2c2.3-4.8,0.7-15.3-2.9-19.7
					l-2.5-3.2c-4-4.3-5.7-13.5-3.5-18.6c1-2.3,2.8-3.6,5.1-3.6c2,0,3.7,0.7,4.9,2c2.4,2.7,2.4,7.1,2.3,8.5h-2.3
					c0.1-0.9,0.2-4.8-1.7-6.9c-0.8-0.9-1.8-1.3-3.1-1.3c-1.3,0-2.3,0.7-2.9,2.2c-1.8,4.3-0.2,12.6,3.1,16.1l0.1,0.1L70.5,113z"/>
			</g>
			<g>
				<polygon class="st0" points="99.9,88.7 99.9,138.5 97.5,138.5 97.5,101.4 91,137.5 90.8,138.5 88.8,138.5 88.6,137.5 82,101.4 
					82,138.5 79.7,138.5 79.7,88.7 82.1,88.7 89.8,131 97.5,88.7 				"/>
			</g>
			<g>
				<polygon class="st0" points="140.8,88.7 140.8,138.5 138.4,138.5 138.4,120.6 129.7,120.6 129.7,138.5 127.4,138.5 127.4,88.7 
					129.7,88.7 129.7,118.3 138.4,118.3 138.4,88.7 				"/>
			</g>
			<g>
				<rect x="106.3" y="88.7" class="st0" width="2.3" height="49.8"/>
			</g>
			<g>
				<polygon class="st0" points="91.2,138.6 90.7,138.7 90.8,138.5 91.1,138.5 				"/>
			</g>
			<g>
				<polygon class="st0" points="124.2,88.7 124.2,91.1 119.5,91.1 119.5,138.5 117.2,138.5 117.2,91.1 112.5,91.1 112.5,88.7 				
					"/>
			</g>
		</g>
		<path class="st1" d="M140.6,59.5c-2-7.2-11.2-14.7-18.2-16.6c-1.4-0.4-11.4-1.2-9.8,2.3c0.9,1.9,2.6,0.3,3.3-0.1
			c2-1,3.5-1,5.8-0.5c6.8,1.4,17.9,9.1,16.8,17.2c-0.5,3.6-4,8.5-7.6,9.6c-3.1,0.9-6.1-2.1-6.4-5.2c-0.4-4,4.1-7.5,3.2-11.9
			c-1-4.8-5.3,0-5.9,2.3c-1.3,4.8,0.8,7.5-3.6,10.9c-1.9,1.5-7,5.8-8.6,1.7c-0.9-2.4,2.9-10.3,1.2-11.2c-2-1-2.7,2.6-3.1,3.7
			c-0.7,2-7.1,12.9-9.4,11.7c-2.7-1.3-0.6-8.2,0.1-11.2c0.1-0.4-0.2-0.9-0.7-0.9c-2.3,0.1-2.2,2.3-2.8,4.4c-0.8,2.5-2.8,6.3-5,7.9
			c-5.8,4.3-0.4-11.2-1.2-11.9c-2.2-1.9-3.5,4.2-3.9,5.1c-1.2,2.8-5.8,11.3-7.2,11.1c-1.6-0.3-1.4-3-1.4-4c0-1.8,2.7-8.2-0.3-7.6
			c-2,0.4-2.3,4.9-3.1,6.4c-0.9,1.8-3.3,6.5-5.5,6.9c-3.2,0.6-0.9-8.9-0.6-10.7c0.4-2,0.5-1.7-0.6-2.3c-0.2-0.1-0.5-0.2-0.7-0.1
			c-0.2,0.1-0.4,0.1-0.5,0.2c-0.4,0.1-0.8,0-1-0.3c-0.1-0.1-0.2-0.3-0.3-0.5c-0.1-0.1-0.3-0.3-0.4-0.4c-1.2-0.6-1.5-1.1-3.1-0.5
			c-3,1.1-7.7,10.4-8.7,11.8c-0.5,0.8-2,2.3-2.3,3.1c-0.1,0.2-0.1,0.4-0.1,0.6c0,0.3,0,0.3,0,0c0-0.7-0.1-1.3-0.1-2
			c-0.1-4.3-0.2-8.7-0.3-13.1c0.1-2.1,0-40-0.2-43.8v0c-0.1-2.3-0.3-4.7-0.5-7c-0.3-3.3-0.6-6.5-1.3-9.8c-0.2-0.8-0.4-1.7-0.7-2.5
			c-0.2-0.4-0.8-1.6-0.9-1.8c-0.1-0.1-0.3-0.3-0.5-0.4C44.3,0.1,44.1,0,43.7,0c-0.2,0-0.3,0-0.5,0c-0.1,0-0.2,0.1-0.4,0.1
			C42,0.7,41.1,2.4,41,2.8c-0.2,0.5-1.3,4.3-2.2,7.6c0,0,0,0.1,0,0.1c0,0,0,0.1-0.1,0.2c0,0.1,0,0.1,0,0.2c0,0.1,0,0.2-0.1,0.2
			c0,0,0,0.1,0,0.1c-1.1,3.6-14.3,35.5-6.3,65.2c0,0,0,0,0,0c0.3,1.3,0.9,3.5,1.5,5.2c0.1,0.2,0.2,0.4,0.3,0.6c0,0,0,0,0,0
			c0,0.1,0.1,0.1,0.1,0.2c0.9,1.9,1.9,2.8,3.2,1.6c1.4-1.3-0.2-2.7-0.9-3.3c-0.1-0.1-0.2-0.2-0.3-0.4c-9.2-27.2,1.7-58,3.9-66.3
			c0.1-0.2,0.1-0.4,0.2-0.6c0.1-0.3,0.1-0.5,0.2-0.7c0.1-0.2,0.1-0.4,0.1-0.5c0-0.1,0.1-0.2,0.1-0.2c0-0.1,0.1-0.2,0.1-0.4
			c0-0.1,0-0.1,0.1-0.2c0-0.1,0.1-0.2,0.1-0.3c0.9-3.2,1.9-6.8,2.1-7.3c0.1-0.3,0.3-0.6,0.5-0.9c0.1,0.1,0.1,0.3,0.1,0.4
			c0.2,0.7,0.4,1.4,0.5,2.2c0.5,3.1,0.7,6.3,0.9,9.5c0.3,6.3-0.1,39.4-0.1,40.8c0,0,0,0.1,0,0.1c-0.2,1.4-0.3,7.8-0.3,10
			c0,4.3,0,8.6,0.1,13c0.2,6.6,0.7,13.2,1.6,19.7c0.8,6.4,2.7,32.1,2.6,38.6c-0.1,6.4-0.5,12.8-1.6,19c-0.6,3.1-1.3,6.1-2.4,9
			c-1.1,2.8-2.5,5.5-4.5,7.5c-1,0.9-2.1,1.8-3.3,2.4l-0.5,0.2l-0.2,0.1c0,0,0,0,0,0l-0.1,0l-1.2,0.4c-0.4,0.1-0.8,0.3-1.1,0.3
			l-1,0.2c-2.7,0.4-5.7,0.1-8.4-1c-5.5-2.2-10-6.8-13.3-12c-3.4-5.3-5.7-11.3-7-17.4c-0.4-1.8-0.7-3.6-0.9-5.4c0,0,0,0,0,0
			c-0.4-7.8,0-22.8,7.8-33.3c4.2-5.7,10.6-9.4,17.7-10.8c1.6-0.3,3.3-0.2,4.9,0.3c1.4,0.5,3.3,0.8,3.5-0.8c0.5-3.6-1.9-5-12.2-1.4
			c-7.6,2.4-12,5.8-16,11.2c-0.8,1-1.4,2.1-2.1,3.2c0,0,0,0,0,0c-1.3,1.9-4.1,6.8-6,17.8c-1.2,6.5-0.9,13.3,0.2,19.9
			c1.2,6.6,3.5,13,6.9,18.8c1.7,2.9,3.8,5.7,6.3,8.1c2.5,2.4,5.4,4.5,8.7,5.9c3.3,1.4,7,1.9,10.7,1.4l1.4-0.2
			c0.5-0.1,0.8-0.2,1.2-0.3l1.2-0.3l0.1,0l0.1,0c0.3-0.1,0.1-0.1,0.2-0.1l0.3-0.1l0.7-0.3c1.8-0.7,3.3-1.9,4.6-3.2
			c2.6-2.6,4.3-5.8,5.6-9c1.3-3.2,2.1-6.5,2.7-9.8c1.2-6.6,1.6-13.2,1.8-19.8c0.1-6.6-1.9-32.8-2.8-39.2c-0.6-4.4-1.1-8.7-1.4-13.1
			c0-0.3,0.1-0.7,0.4-0.8l0.7-0.5c0.4-0.3,1-0.2,1.3,0.2c1.1,1.5,2.4,2.6,4.6,2.1c2.9-0.7,3.5-3.6,5.7-4.8c1.9-1,3.3,1.4,5.5,0.9
			c2.4-0.6,3.6-3.3,5.3-5c0.4-0.4,1.2-0.3,1.5,0.2c1,1.8,2.5,3.8,4.8,2.6c2-1,3.9-5.1,5.2-7c0,0,0,0,0,0c0,0,0,0,0-0.1
			c1,0.4,0.9,2.5,2,3.3c1,0.8,2.3,0.9,3.4,0.3c2.2-1,3.3-6.3,5.5-4.3c1.7,1.6,1.4,4.3,4.8,3c2.1-0.8,3.9-3.8,5.3-5.8
			c0.3-0.5,1.1-0.6,1.4-0.1c1.1,1.2,1.3,3.1,3.2,3.9c2.5,1,4.8-0.2,6.9-1.6c0.9-0.7,3.6-4,5-3.4c0.5,0.2,1.1,2.4,1.5,3
			c0.7,0.9,1.5,1.8,2.5,2.4C132.4,77.1,142.4,66.2,140.6,59.5z M58.5,82.3c-0.8,0.8-2.2,2.4-3.6,1.7c-0.7-0.4-1-1.9-1.1-2.5
			c0-0.1,0-0.3,0-0.4c1.1-3.8,2-7.6,4.4-10.8c2.2-3.1,4.6-2.4,4.9,1.8C63.3,75.6,60.8,79.9,58.5,82.3z M122.8,60.1
			c-0.1-0.2,1.4-4.2,1.4-4.4c0.4-1.1,2.1-0.7,1.8,0.5c0,0.1-0.6,1.4-0.7,1.6C125,59,123.3,61.3,122.8,60.1z"/>
	</g>
</g>
</svg>
